<svg width="130" height="130" viewBox="0 0 130 130" fill="none" xmlns="http://www.w3.org/2000/svg">
<path d="M65 129.996C100.898 129.996 130 100.896 130 64.9982C130 29.1007 100.898 0 65 0C29.1015 0 0 29.1007 0 64.9982C0 100.896 29.1015 129.996 65 129.996Z" fill="#F2F2F2"/>
<mask id="mask0_2017_63608" style="mask-type:alpha" maskUnits="userSpaceOnUse" x="0" y="0" width="130" height="130">
<path d="M65 129.996C100.898 129.996 130 100.896 130 64.9982C130 29.1007 100.898 0 65 0C29.1015 0 0 29.1007 0 64.9982C0 100.896 29.1015 129.996 65 129.996Z" fill="#F2F2F2"/>
</mask>
<g mask="url(#mask0_2017_63608)">
<path d="M-3.44458 128.709L133.873 128.495V130H-3.44458V128.709Z" fill="#FEFEFE"/>
<path d="M-3.44458 126.876L133.873 126.663V128.495L-3.44458 128.709V126.876Z" fill="#FDFDFD"/>
<path d="M-3.44458 125.044L133.873 124.831V126.663L-3.44458 126.876V125.044Z" fill="#FDFDFD"/>
<path d="M-3.44458 123.212L133.873 122.999V124.831L-3.44458 125.044V123.212Z" fill="#FDFDFD"/>
<path d="M-3.44458 121.38L133.873 121.167V122.999L-3.44458 123.212V121.38Z" fill="#FCFCFC"/>
<path d="M-3.44458 119.548L133.873 119.334V121.167L-3.44458 121.38V119.548Z" fill="#FCFCFC"/>
<path d="M-3.44458 117.716L133.873 117.502V119.334L-3.44458 119.548V117.716Z" fill="#FBFBFB"/>
<path d="M-3.44458 115.887L133.873 115.67V117.502L-3.44458 117.716V115.887Z" fill="#FAFAFA"/>
<path d="M-3.44458 114.055L133.873 113.842V115.67L-3.44458 115.887V114.055Z" fill="#FAFAFA"/>
<path d="M-3.44458 112.223L133.873 112.009V113.842L-3.44458 114.055V112.223Z" fill="#F9F9F9"/>
<path d="M-3.44458 110.391L133.873 110.177V112.009L-3.44458 112.223V110.391Z" fill="#F8F8F8"/>
<path d="M-3.44458 108.558L133.873 108.345V110.177L-3.44458 110.391V108.558Z" fill="#F7F7F7"/>
<path d="M-3.44458 106.726L133.873 106.513V108.345L-3.44458 108.558V106.726Z" fill="#F6F6F6"/>
<path d="M-3.44458 104.894L133.873 104.681V106.513L-3.44458 106.726V104.894Z" fill="#F5F5F5"/>
<path d="M-3.44458 103.062L133.873 102.848V104.681L-3.44458 104.894V103.062Z" fill="#F4F4F4"/>
<path d="M-3.44458 101.23L133.873 101.016V102.848L-3.44458 103.062V101.23Z" fill="#F3F3F3"/>
<path d="M-3.44458 99.4011L133.873 99.1841V101.016L-3.44458 101.23V99.4011Z" fill="#F2F2F2"/>
<path d="M-3.44458 97.569L133.873 97.3519V99.1841L-3.44458 99.4012V97.569Z" fill="#F1F1F1"/>
<path d="M-3.44458 95.7368L133.873 95.5197V97.3519L-3.44458 97.569V95.7368Z" fill="#EFEFEF"/>
<path d="M-3.44458 93.9046L133.873 93.6912V95.5198L-3.44458 95.7368V93.9046Z" fill="#EEEEEE"/>
<path d="M-3.44458 92.0725L133.873 91.8591V93.6913L-3.44458 93.9046V92.0725Z" fill="#ECECEC"/>
<path d="M-3.44458 90.2403L133.873 90.0269V91.8591L-3.44458 92.0724V90.2403Z" fill="#EBEBEB"/>
<path d="M-3.44458 88.4081L133.873 88.1947V90.0269L-3.44458 90.2403V88.4081Z" fill="#E9E9E9"/>
<path d="M-3.44458 86.5759L133.873 86.3625V88.1947L-3.44458 88.4081V86.5759Z" fill="#E7E7E7"/>
<path d="M-3.44458 84.7437L133.873 84.5303V86.3625L-3.44458 86.5759V84.7437Z" fill="#E6E6E6"/>
<path d="M-3.44458 82.9116L133.873 82.6982V84.5304L-3.44458 84.7437V82.9116Z" fill="#E4E4E4"/>
<path d="M-3.44458 81.0794L133.873 80.866V82.6982L-3.44458 82.9116V81.0794Z" fill="#E2E2E2"/>
<path d="M-3.44458 79.2509L133.873 79.0338V80.866L-3.44458 81.0794V79.2509Z" fill="#E0E0E0"/>
<path d="M-3.44458 77.4187L133.873 77.2053V79.0338L-3.44458 79.2509V77.4187Z" fill="#DDDDDD"/>
<path d="M133.873 77.2053L-3.44458 77.4187V75.7337H133.873V77.2053Z" fill="#DBDBDB"/>
</g>
<path d="M68.9009 37.9161L82.3042 55.4547C82.9749 56.3323 84.2301 56.5001 85.1077 55.8294C85.9853 55.1587 86.1531 53.9035 85.4824 53.0259L72.0791 35.4873C71.4084 34.6097 70.1532 34.4419 69.2756 35.1126C68.398 35.7833 68.2302 37.0385 68.9009 37.9161Z" fill="#B9B9B9"/>
<path d="M71.1609 94.405V56.4296L108.225 57.7209L99.428 92.0798C99.3407 92.7248 99.022 93.3161 98.5314 93.7438C98.0408 94.1714 97.4115 94.4064 96.7606 94.405H71.1536" fill="#D4D4D4"/>
<path d="M71.1651 56.9079L21.1577 56.941L29.6971 92.146C29.8252 92.7341 30.1438 93.2634 30.6035 93.6519C31.0632 94.0404 31.6382 94.2663 32.2394 94.2946L71.1651 94.405V56.9079Z" fill="#B9B9B9"/>
<path d="M107.791 51.7903H21.9004C20.3033 51.7903 19.0085 53.085 19.0085 54.682V54.6857C19.0085 56.2828 20.3033 57.5775 21.9004 57.5775H107.791C109.388 57.5775 110.683 56.2828 110.683 54.6857V54.682C110.683 53.085 109.388 51.7903 107.791 51.7903Z" fill="#8F0007"/>
<path d="M71.1645 57.6474H21.9041C21.524 57.6479 21.1475 57.5734 20.7963 57.4283C20.445 57.2832 20.1258 57.0703 19.8568 56.8017C19.5879 56.5331 19.3746 56.2142 19.229 55.8631C19.0835 55.512 19.0085 55.1357 19.0085 54.7556C19.0124 53.9903 19.3192 53.2576 19.8618 52.7177C20.4044 52.1779 21.1387 51.8749 21.9041 51.8749H71.1645" fill="#C8102E"/>
<path d="M94.1373 67H94.1327C93.0294 67 92.135 67.8944 92.135 68.9977V69.0022C92.135 70.1055 93.0294 70.9999 94.1327 70.9999H94.1373C95.2406 70.9999 96.135 70.1055 96.135 69.0022V68.9977C96.135 67.8944 95.2406 67 94.1373 67Z" fill="#8F0007"/>
<path d="M82.4671 67H82.4626C81.3593 67 80.4648 67.8944 80.4648 68.9977V69.0022C80.4648 70.1055 81.3593 70.9999 82.4626 70.9999H82.4671C83.5704 70.9999 84.4648 70.1055 84.4648 69.0022V68.9977C84.4648 67.8944 83.5704 67 82.4671 67Z" fill="#8F0007"/>
<path d="M94.5013 79.7725C94.7364 79.7734 94.9628 79.684 95.1336 79.5226C95.2235 79.4402 95.2963 79.3409 95.3479 79.2305C95.3997 79.1196 95.429 78.9996 95.4343 78.8773C95.4396 78.7551 95.4207 78.633 95.3788 78.518C95.3368 78.4031 95.2725 78.2976 95.1897 78.2075C93.0716 75.9037 90.7051 74.7191 88.1588 74.7191C86.019 74.7191 84.1705 75.5581 82.8454 76.4091C81.5234 77.2581 80.7121 78.1256 80.6378 78.2082C80.5552 78.2985 80.4911 78.4041 80.4492 78.519C80.4072 78.6343 80.3883 78.7566 80.3936 78.8791C80.3989 79.0016 80.4283 79.1219 80.48 79.2331C80.5318 79.3442 80.605 79.4441 80.6953 79.527C80.7857 79.6099 80.8915 79.6741 81.0067 79.7161C81.1219 79.7581 81.2443 79.777 81.3668 79.7717C81.4893 79.7664 81.6096 79.7371 81.7208 79.6853C81.8319 79.6335 81.9318 79.5604 82.0147 79.47L82.0225 79.4615L82.0245 79.4586C82.025 79.458 82.0256 79.4573 82.0263 79.4566C82.0313 79.4509 82.0391 79.4424 82.0497 79.4312C82.0709 79.4088 82.1021 79.3765 82.143 79.3357C82.2248 79.2541 82.3446 79.1392 82.4989 79.0022C82.8074 78.7281 83.2527 78.3664 83.8054 78.0061C84.9129 77.2841 86.4405 76.5754 88.1588 76.5754C90.1429 76.5754 92.0444 77.5482 93.8135 79.47C93.901 79.5654 94.0074 79.6415 94.1258 79.6936C94.2442 79.7456 94.372 79.7724 94.5013 79.7725ZM94.5013 79.7725C94.5012 79.7725 94.5011 79.7725 94.501 79.7725L94.5017 79.6225L94.5017 79.7725C94.5016 79.7725 94.5014 79.7725 94.5013 79.7725Z" fill="#8F0007" stroke="#8F0007" stroke-width="0.3"/>
<path d="M57 65V87C57 88.1046 57.8954 89 59 89C60.1046 89 61 88.1046 61 87V65C61 63.8954 60.1046 63 59 63C57.8954 63 57 63.8954 57 65Z" fill="#F2F2F2"/>
<path d="M46 65V87C46 88.1046 46.8954 89 48 89C49.1046 89 50 88.1046 50 87V65C50 63.8954 49.1046 63 48 63C46.8954 63 46 63.8954 46 65Z" fill="#F2F2F2"/>
<path d="M35 65V87C35 88.1046 35.8954 89 37 89C38.1046 89 39 88.1046 39 87V65C39 63.8954 38.1046 63 37 63C35.8954 63 35 63.8954 35 65Z" fill="#F2F2F2"/>
<path d="M110.5 40.7838H110.55V40.776C110.76 40.7821 110.968 40.8265 111.162 40.9073C111.372 40.9945 111.562 41.1223 111.723 41.2834C111.883 41.4444 112.01 41.6355 112.096 41.8457C112.182 42.0559 112.226 42.2811 112.225 42.5083V42.5085C112.225 42.8497 112.124 43.1831 111.934 43.4667C111.745 43.7504 111.475 43.9714 111.16 44.102C110.845 44.2325 110.498 44.2667 110.164 44.2001C109.829 44.1336 109.522 43.9693 109.28 43.7281C109.039 43.4869 108.875 43.1796 108.808 42.845C108.742 42.5104 108.776 42.1637 108.907 41.8485C109.037 41.5333 109.258 41.264 109.542 41.0745C109.825 40.8849 110.159 40.7838 110.5 40.7838ZM109.083 44.6203C109.503 44.9004 109.996 45.05 110.5 45.05C111.176 45.05 111.825 44.7813 112.303 44.3031C112.781 43.8249 113.05 43.1763 113.05 42.5C113.05 41.9957 112.9 41.5026 112.62 41.0833C112.34 40.664 111.942 40.3371 111.476 40.1441C111.01 39.9511 110.497 39.9006 110.003 39.999C109.508 40.0974 109.054 40.3403 108.697 40.6969C108.34 41.0535 108.097 41.5079 107.999 42.0025C107.901 42.4972 107.951 43.0099 108.144 43.4758C108.337 43.9418 108.664 44.3401 109.083 44.6203Z" fill="#8F0007" stroke="#8F0007" stroke-width="0.1"/>
<path d="M95.5 34C96.8807 34 98 32.8807 98 31.5C98 30.1193 96.8807 29 95.5 29C94.1193 29 93 30.1193 93 31.5C93 32.8807 94.1193 34 95.5 34Z" fill="#C8102E"/>
<path d="M74.005 18.9393L74.0551 18.9394V18.9245C74.312 18.9307 74.5656 18.9845 74.8031 19.0834C75.0559 19.1886 75.2855 19.3429 75.4784 19.5373C75.6714 19.7317 75.824 19.9623 75.9275 20.2159C76.0309 20.4695 76.0832 20.7411 76.0812 21.015L76.0812 21.0154C76.0822 21.4275 75.9608 21.8306 75.7325 22.1736C75.5042 22.5166 75.1792 22.7841 74.7987 22.9422C74.4183 23.1004 73.9994 23.142 73.5952 23.0619C73.191 22.9817 72.8198 22.7834 72.5284 22.492C72.237 22.2007 72.0387 21.8294 71.9586 21.4252C71.8784 21.0211 71.9201 20.6022 72.0782 20.2217C72.2363 19.8412 72.5039 19.5162 72.8469 19.2879C73.1899 19.0596 73.5929 18.9383 74.005 18.9393ZM72.3093 23.5385C72.8115 23.873 73.4017 24.051 74.0052 24.05C74.8132 24.0486 75.5877 23.7267 76.1585 23.1548C76.7294 22.583 77.05 21.808 77.05 21C77.05 20.3965 76.871 19.8067 76.5356 19.305C76.2003 18.8033 75.7236 18.4124 75.166 18.1817C74.6084 17.951 73.9948 17.8909 73.4031 18.009C72.8113 18.1271 72.2678 18.4181 71.8415 18.8452C71.4151 19.2722 71.1251 19.8162 71.008 20.4082C70.8909 21.0001 70.952 21.6136 71.1837 22.1708C71.4153 22.728 71.807 23.204 72.3093 23.5385Z" fill="#8F0007" stroke="#8F0007" stroke-width="0.1"/>
<path d="M41 25C42.1046 25 43 24.1046 43 23C43 21.8954 42.1046 21 41 21C39.8954 21 39 21.8954 39 23C39 24.1046 39.8954 25 41 25Z" fill="#C8102E"/>
<path d="M18.0833 43.6202C18.5026 43.9004 18.9957 44.05 19.5 44.05C20.1763 44.05 20.8249 43.7813 21.3031 43.3031C21.7813 42.8249 22.05 42.1763 22.05 41.5C22.05 40.9957 21.9004 40.5026 21.6203 40.0833C21.3401 39.664 20.9418 39.3371 20.4758 39.1441C20.0099 38.9511 19.4972 38.9006 19.0025 38.999C18.5079 39.0974 18.0535 39.3403 17.6969 39.6969C17.3403 40.0535 17.0974 40.5079 16.999 41.0025C16.9006 41.4972 16.9511 42.0099 17.1441 42.4758C17.3371 42.9418 17.664 43.34 18.0833 43.6202ZM18.5406 40.0706C18.8245 39.8807 19.1584 39.7794 19.5 39.7794C19.9569 39.7794 20.3951 39.9605 20.7186 40.2831C21.0421 40.6056 21.2245 41.0433 21.2259 41.5002C21.2269 41.8417 21.1266 42.1759 20.9375 42.4604C20.7485 42.7449 20.4793 42.9669 20.164 43.0983C19.8488 43.2297 19.5016 43.2647 19.1665 43.1986C18.8313 43.1326 18.5233 42.9687 18.2814 42.7275C18.0395 42.4863 17.8747 42.1788 17.8077 41.8439C17.7406 41.509 17.7745 41.1617 17.905 40.846C18.0355 40.5303 18.2567 40.2605 18.5406 40.0706Z" fill="#8F0007" stroke="#8F0007" stroke-width="0.1"/>
<path d="M70.1354 38H33.8646C33.3701 38 32.8958 37.7893 32.5461 37.4142C32.1964 37.0391 32 36.5304 32 36C32 35.4696 32.1964 34.9609 32.5461 34.5858C32.8958 34.2107 33.3701 34 33.8646 34H70.1354C70.6299 34 71.1042 34.2107 71.4539 34.5858C71.8035 34.9609 72 35.4696 72 36C72 36.5304 71.8035 37.0391 71.4539 37.4142C71.1042 37.7893 70.6299 38 70.1354 38Z" fill="#707070"/>
<path d="M31.2144 37.0179L45.3041 55.4547C45.9748 56.3323 47.23 56.5001 48.1076 55.8294C48.9852 55.1587 49.153 53.9035 48.4823 53.0259L34.3926 34.5891C33.7219 33.7115 32.4667 33.5437 31.5891 34.2144C30.7115 34.8851 30.5437 36.1403 31.2144 37.0179Z" fill="#B9B9B9"/>
</svg>
